<?xml version="1.0" encoding="UTF-8"?>
<svg id="Layer_2" xmlns="http://www.w3.org/2000/svg" version="1.1" viewBox="0 0 517.06 163.73">
  <!-- Generator: Adobe Illustrator 30.2.1, SVG Export Plug-In . SVG Version: 2.1.1 Build 1)  -->
  <defs>
    <style>
      .st0 {
        fill: #fff;
      }
    </style>
  </defs>
  <g>
    <g>
      <path class="st0" d="M177.6,97.72c1.46,1.92,2.2,4.33,2.2,7.21,0,4.07-1.33,7.18-4,9.34-2.67,2.16-6.45,3.25-11.34,3.25h-16.52c-.83,0-1.5-.24-2-.72s-.75-1.12-.75-1.9v-40.98c0-.79.25-1.42.75-1.9.5-.48,1.17-.72,2-.72h15.8c4.76,0,8.46,1.05,11.08,3.15,2.62,2.1,3.93,5.07,3.93,8.92,0,2.49-.65,4.63-1.93,6.42-1.29,1.79-3.09,3.13-5.41,4,2.67.7,4.73,2.01,6.2,3.93ZM150.49,91.82h12.46c3.45,0,6.06-.7,7.84-2.1,1.77-1.4,2.66-3.43,2.66-6.1,0-5.25-3.5-7.87-10.49-7.87h-12.46v16.06ZM171.96,111.07c1.73-1.33,2.59-3.42,2.59-6.26,0-5.68-3.54-8.52-10.62-8.52h-13.44v16.78h13.44c3.63,0,6.3-.67,8.03-2Z"/>
      <path class="st0" d="M188.71,77.14c-.66-.61-.98-1.42-.98-2.43s.33-1.75.98-2.36c.66-.61,1.51-.92,2.56-.92s1.9.31,2.56.92c.66.61.98,1.4.98,2.36s-.33,1.81-.98,2.43c-.66.61-1.51.92-2.56.92s-1.9-.31-2.56-.92ZM189.33,117.16c-.5-.46-.75-1.1-.75-1.93v-27.67c0-.83.25-1.48.75-1.93.5-.46,1.15-.69,1.93-.69s1.42.23,1.9.69c.48.46.72,1.1.72,1.93v27.67c0,.87-.24,1.53-.72,1.97-.48.44-1.11.66-1.9.66s-1.43-.23-1.93-.69Z"/>
      <path class="st0" d="M209.07,115.95c-2.29-1.35-4.06-3.29-5.31-5.8-1.25-2.51-1.87-5.43-1.87-8.75s.62-6.24,1.87-8.75,3.02-4.45,5.31-5.8c2.29-1.35,4.95-2.03,7.97-2.03s5.68.68,8,2.03c2.32,1.36,4.1,3.29,5.34,5.8,1.25,2.51,1.87,5.43,1.87,8.75s-.62,6.24-1.87,8.75c-1.25,2.51-3.03,4.45-5.34,5.8-2.32,1.36-4.98,2.03-8,2.03s-5.67-.68-7.97-2.03ZM224.28,110.48c1.68-2.08,2.52-5.1,2.52-9.08s-.85-6.9-2.56-9.02c-1.7-2.12-4.11-3.18-7.21-3.18s-5.51,1.06-7.21,3.18c-1.7,2.12-2.56,5.13-2.56,9.02s.84,6.95,2.52,9.05c1.68,2.1,4.1,3.15,7.25,3.15s5.56-1.04,7.25-3.11Z"/>
      <path class="st0" d="M266.14,115.2c-3.19-1.9-5.65-4.63-7.38-8.19-1.73-3.56-2.59-7.77-2.59-12.62s.86-8.99,2.59-12.56c1.73-3.56,4.18-6.29,7.38-8.2,3.19-1.9,6.97-2.85,11.34-2.85,2.93,0,5.69.47,8.29,1.41,2.6.94,4.86,2.28,6.79,4.03.7.66,1.05,1.42,1.05,2.29,0,.61-.18,1.15-.52,1.61-.35.46-.77.69-1.25.69-.52,0-1.16-.24-1.9-.72-2.23-1.75-4.25-2.97-6.06-3.67-1.81-.7-3.9-1.05-6.26-1.05-5.07,0-8.97,1.65-11.7,4.95s-4.1,7.99-4.1,14.06,1.37,10.83,4.1,14.13c2.73,3.3,6.63,4.95,11.7,4.95,2.32,0,4.39-.35,6.23-1.05,1.84-.7,3.87-1.92,6.1-3.67.74-.48,1.38-.72,1.9-.72.48,0,.9.22,1.25.66.35.44.52.98.52,1.64,0,.87-.35,1.64-1.05,2.29-1.92,1.75-4.19,3.09-6.79,4.03-2.6.94-5.37,1.41-8.29,1.41-4.37,0-8.15-.95-11.34-2.85Z"/>
      <path class="st0" d="M326.79,110.71c.35.39.52.9.52,1.51,0,1.09-.77,2.1-2.29,3.02-1.57.92-3.24,1.61-4.98,2.07-1.75.46-3.45.69-5.11.69-4.94,0-8.84-1.46-11.7-4.39-2.86-2.93-4.29-6.97-4.29-12.13,0-3.28.63-6.17,1.9-8.69,1.27-2.51,3.05-4.47,5.34-5.87,2.29-1.4,4.91-2.1,7.83-2.1,4.15,0,7.45,1.36,9.9,4.07,2.45,2.71,3.67,6.38,3.67,11.01,0,.87-.18,1.51-.52,1.9-.35.39-.92.59-1.7.59h-21.11c.39,7.52,3.96,11.28,10.69,11.28,1.7,0,3.17-.23,4.39-.69,1.22-.46,2.53-1.08,3.93-1.87,1.14-.65,1.9-.98,2.29-.98.48,0,.9.2,1.25.59ZM307.35,91.56c-1.68,1.75-2.68,4.22-2.98,7.41h18.55c-.09-3.23-.9-5.71-2.43-7.44-1.53-1.73-3.67-2.59-6.43-2.59s-5.04.87-6.72,2.62Z"/>
      <path class="st0" d="M393.65,116.84c-.5-.46-.75-1.06-.75-1.8v-41.31c0-.83.24-1.5.72-2,.48-.5,1.14-.75,1.97-.75s1.49.25,1.97.75c.48.5.72,1.17.72,2v39.21h21.18c.79,0,1.4.2,1.84.59.44.39.66.96.66,1.7s-.22,1.31-.66,1.7c-.44.39-1.05.59-1.84.59h-23.93c-.74,0-1.37-.23-1.87-.69Z"/>
      <path class="st0" d="M427.64,77.14c-.66-.61-.98-1.42-.98-2.43s.33-1.75.98-2.36c.66-.61,1.51-.92,2.56-.92s1.9.31,2.56.92c.66.61.98,1.4.98,2.36s-.33,1.81-.98,2.43c-.66.61-1.51.92-2.56.92s-1.9-.31-2.56-.92ZM428.26,117.16c-.5-.46-.75-1.1-.75-1.93v-27.67c0-.83.25-1.48.75-1.93.5-.46,1.15-.69,1.93-.69s1.42.23,1.9.69c.48.46.72,1.1.72,1.93v27.67c0,.87-.24,1.53-.72,1.97-.48.44-1.11.66-1.9.66s-1.43-.23-1.93-.69Z"/>
      <path class="st0" d="M451.57,77.69c-1.18,1.29-1.77,3.22-1.77,5.8v2.1h7.28c.74,0,1.31.2,1.7.59s.59.92.59,1.57-.2,1.16-.59,1.51c-.39.35-.96.52-1.7.52h-7.28v25.44c0,.83-.25,1.47-.75,1.93-.5.46-1.13.69-1.87.69-.79,0-1.43-.23-1.93-.69-.5-.46-.75-1.1-.75-1.93v-25.44h-4.39c-.74,0-1.32-.19-1.74-.56-.42-.37-.62-.86-.62-1.48,0-.66.21-1.18.62-1.57.41-.39.99-.59,1.74-.59h4.39v-1.18c0-3.93.98-7.03,2.95-9.28,1.97-2.25,4.79-3.51,8.46-3.77l1.7-.13c1.14-.09,1.96.02,2.46.33.5.31.75.85.75,1.64,0,1.27-.77,1.99-2.29,2.16l-1.7.13c-2.32.18-4.06.91-5.24,2.2Z"/>
      <path class="st0" d="M489.86,110.71c.35.39.52.9.52,1.51,0,1.09-.77,2.1-2.29,3.02-1.57.92-3.24,1.61-4.98,2.07-1.75.46-3.45.69-5.11.69-4.94,0-8.84-1.46-11.7-4.39-2.86-2.93-4.29-6.97-4.29-12.13,0-3.28.63-6.17,1.9-8.69,1.27-2.51,3.05-4.47,5.34-5.87,2.29-1.4,4.91-2.1,7.83-2.1,4.15,0,7.45,1.36,9.9,4.07,2.45,2.71,3.67,6.38,3.67,11.01,0,.87-.18,1.51-.52,1.9-.35.39-.92.59-1.7.59h-21.11c.39,7.52,3.96,11.28,10.69,11.28,1.7,0,3.17-.23,4.39-.69,1.22-.46,2.53-1.08,3.93-1.87,1.14-.65,1.9-.98,2.29-.98.48,0,.9.2,1.25.59ZM470.42,91.56c-1.68,1.75-2.68,4.22-2.98,7.41h18.55c-.09-3.23-.9-5.71-2.43-7.44-1.53-1.73-3.67-2.59-6.43-2.59s-5.04.87-6.72,2.62Z"/>
    </g>
    <path class="st0" d="M346.2,118.52c-2.41,0-4.63-.76-6.4-2.23-2.45-2.03-3.86-5.27-3.86-8.9v-33.6c0-1.45,1.17-2.62,2.62-2.62s2.62,1.17,2.62,2.62v33.6c0,2.07.71,3.84,1.96,4.87,1.12.92,2.63,1.23,4.39.9,1.42-.27,2.79.66,3.07,2.08.27,1.42-.66,2.79-2.08,3.07-.78.15-1.55.23-2.31.23Z"/>
    <path class="st0" d="M365.61,118.52c-2.41,0-4.63-.76-6.4-2.23-2.45-2.03-3.86-5.27-3.86-8.9v-33.6c0-1.45,1.17-2.62,2.62-2.62s2.62,1.17,2.62,2.62v33.6c0,2.07.71,3.84,1.96,4.87,1.12.92,2.64,1.23,4.39.9,1.42-.27,2.79.66,3.07,2.08.27,1.42-.66,2.79-2.08,3.07-.78.15-1.55.23-2.31.23Z"/>
  </g>
  <g>
    <path class="st0" d="M48.15,139.3c-3.48,0-6.65-.68-9.49-2.04-2.67-1.27-4.96-3.11-6.8-5.48-1.77-2.27-3.13-5.01-4.05-8.17-4.21-14.51,1.23-36.34,14.21-56.96,4.66-7.38,9.99-14.16,15.83-20.14,5.66-5.79,11.57-10.61,17.57-14.31,6.05-3.74,11.9-6.16,17.38-7.2,5.81-1.1,10.96-.61,15.32,1.46,0,0,0,0,0,0,2.65,1.27,4.93,3.11,6.76,5.48,1.76,2.27,3.11,5.01,4.02,8.16,2.03,7.06,1.82,16.02-.61,25.94-2.48,10.1-7.19,20.83-13.63,31.03-4.66,7.38-9.98,14.16-15.83,20.14-5.66,5.79-11.57,10.61-17.56,14.31-6.04,3.74-11.88,6.16-17.35,7.2-2.01.38-3.93.57-5.78.57ZM98.54,27.34c-6.31,0-13.7,2.49-21.58,7.35-11.95,7.37-23.48,19.28-32.47,33.53-6.27,9.97-10.86,20.41-13.25,30.19-2.31,9.41-2.52,17.85-.62,24.4,1.65,5.69,4.78,9.67,9.3,11.82,7.55,3.62,18.14,1.63,29.82-5.59,11.94-7.38,23.47-19.29,32.46-33.53,6.27-9.94,10.86-20.37,13.26-30.16,2.31-9.42,2.53-17.87.64-24.43-1.64-5.69-4.75-9.67-9.23-11.82-2.48-1.18-5.28-1.76-8.33-1.76Z"/>
    <path class="st0" d="M52.93,133.85c-.14,0-.29,0-.43,0-3.02.03-5.9-.51-8.55-1.6-2.44-1-4.64-2.44-6.55-4.28-1.77-1.7-3.22-3.67-4.3-5.85-1.03-2.08-1.68-4.3-1.87-6.41-.26-2.84.28-5.41,1.57-7.42,1.43-2.24,3.71-3.69,6.6-4.19.02,0,.04,0,.06,0,2.96-.38,5.56,1.15,7.86,2.5,1.81,1.07,3.53,2.08,5.15,2.08.01,0,.02,0,.04,0,.59-.22,1.04-1.05.94-1.83-.23-1.87-1.99-2.73-4.65-3.81-.37-.15-.74-.31-1.1-.46-.03-.01-.05-.02-.08-.04-1.33-.68-2.81-1.22-4.53-1.68-.09-.02-.18-.05-.27-.07-1.15-.3-2.45-.63-3.51-1.57-.91-.8-1.55-2-1.85-3.46-.37-1.82-.09-3.59.85-5.26.27-.47.48-.98.71-1.52.43-1,.87-2.04,1.69-3.02,1.2-1.48,2.73-2.35,4.44-2.51,1.72-.16,3.49.44,5,1.7.87.51,2.19,1.52,3.84,2.78,2.2,1.68,4.93,3.77,7.46,5.33,3.65,2.25,5.07,2.28,5.52,2.19.15-.03.23-.08.31-.18.19-.68-1.17-1.64-1.45-1.83-.02-.01-.03-.02-.05-.03-.54-.39-1.08-.78-1.62-1.17-2.93-2.12-5.96-4.31-8.74-6.76-4.62-2.95-7.23-6.12-7.99-9.67-.35-1.67-.29-3.43.19-5.24.47-1.77,1.36-3.66,2.64-5.59.53-.88,1.4-2.1,2.57-2.99,1.36-1.03,2.86-1.41,4.34-1.1,0,0,.02,0,.03,0,2.72.62,4.1,3.2,5.2,5.27.43.81.84,1.58,1.27,2.14,2,2.44,5.14,5.48,8.85,6.2.14-.01.24-.06.29-.14.05-.08.04-.2-.01-.33-1.08-1.36-2.34-2.57-3.68-3.85-1.64-1.57-3.34-3.2-4.71-5.16-.15-.21-.32-.43-.5-.66-1.13-1.48-2.53-3.32-3.29-5.31-1.28-3.35-.05-5.49,1.2-6.69.93-.89,2.15-1.48,3.53-1.72,1.25-.21,2.56-.12,3.8.26.02,0,.05.02.07.02,3.83,1.41,6.23,4.46,8.56,7.41,1.98,2.51,3.85,4.89,6.49,6.19,0,0,.01,0,.02,0,.99.5,1.51.57,1.71.56.05-.4-.15-1.5-1.08-2.79,0-.01-.02-.03-.03-.04-1.37-2.05-3.28-3.69-5.3-5.42-.43-.37-.88-.76-1.32-1.14-2.41-1.79-4.26-4.08-5.36-6.63-1.11-2.56-1.34-5.23-.67-7.52.55-1.88,1.71-3.48,3.35-4.63,1.73-1.21,3.96-1.91,6.63-2.08.03,0,.07,0,.1,0,3.12.02,5.31,2.33,5.36,5.63.02.43.02.84.02,1.24,0,.75,0,1.46.14,2.09,0,.02,0,.04.01.06.16.95.75,1.38,1.2,1.47.52.1,1.01-.19,1.39-.8.68-1.16.46-2.71.23-4.35-.05-.38-.11-.77-.15-1.15-.34-2.27.15-4.22,1.42-5.63,1.3-1.45,3.35-2.18,5.76-2.07,6.42.12,11.91,3.91,14.33,9.9,1.13,2.54.75,4.36.23,5.44-.53,1.11-1.75,2.59-4.58,3.36l-3.56,1.24c-.24.08-.48.16-.72.23-.67.21-1.3.4-1.65.75-.5.5-.66.95-.47,1.34.24.52,1.1,1,2.2.9.02,0,.04,0,.06,0,.87-.05,1.85-.27,2.89-.5,1.41-.31,2.86-.64,4.32-.61,1.84.03,3.32.62,4.53,1.79.03.03.06.06.09.1,1.15,1.34,1.67,3.02,1.49,4.87-.14,1.4-.67,2.88-1.54,4.29-.77,1.25-1.8,2.41-2.88,3.26-.02.02-.05.04-.07.05-1.58,1.09-3.15,1.44-4.8,1.05-1.35-.32-2.54-1.08-3.69-1.82-1.35-.87-2.62-1.69-4.12-1.85-.04,0-.08-.01-.12-.02-.66-.13-.88-.06-.92-.04-.04.11-.03.5.19.89.67,1.15,2.01,1.78,3.55,2.52,1.42.68,2.9,1.38,4.06,2.6,0,0,.02.02.02.03,1.24,1.37,1.91,3,1.94,4.73.03,1.56-.46,3.1-1.41,4.46-.99,1.41-2.41,2.49-4,3.04-1.77.62-3.63.56-5.4-.15-2.32-.9-3.89-2.59-5.42-4.23-1.18-1.27-2.29-2.46-3.66-3.19-.03-.02-.06-.03-.09-.05l-.22-.14c-.93-.59-2.08-1.32-3.11-1.6-.99-.27-1.47-.05-1.85.39-.22.37-.27.71-.16,1.1.29,1.09,1.7,2.25,2.89,2.87.08.04.15.09.22.14.82.63,2.13,1.35,3.51,2.12,2.24,1.24,4.77,2.65,6.6,4.36,1.09,1.02,1.82,2.04,2.23,3.11.5,1.31.5,2.66,0,4.01-.03.07-.06.15-.1.21-.88,1.55-2.15,2.53-3.75,2.91-.5.12-1.02.17-1.56.17-4.26,0-9.58-3.52-14.33-6.66-2.72-1.8-5.28-3.49-6.83-3.94-.48-.07-.84.05-.99.35-.13.26-.11.69.34,1.14,0,0,0,0,0,0,.37.37.89.63,1.5.94.56.28,1.2.6,1.78,1.06,1.05.82,2.35,1.85,3.67,2.54,2.06,1.08,4.05,2.27,5.97,3.42,1.34.8,2.72,1.63,4.11,2.41,1.62.77,2.85,1.84,3.58,3.11.86,1.51.99,3.24.38,5.02,0,.02-.02.05-.03.07-1.37,3.4-3.95,6.38-6.91,7.98-.03.02-.06.03-.09.05-1.96.89-3.72,1.01-5.37.38-1.33-.51-2.54-1.5-3.8-3.11-1.72-1.43-3.84-2.35-6.09-3.31-1.18-.51-2.39-1.03-3.56-1.64-.01,0-.02-.01-.03-.02-.85-.47-1.67-.39-1.91-.16-.11.1-.09.47.19,1.02.81,1.38,2.51,2.43,4.32,3.54,1.68,1.04,3.41,2.11,4.6,3.58,1.46,1.81,1.83,3.94,1.09,6.35,0,.03-.02.06-.03.09-.83,2.19-2.73,3.91-5.52,4.96-2.09.79-4.64,1.19-6.99,1.09-.01,0-.03,0-.04,0-1.88-.13-3.74-.61-5.51-1.41-1.74-.79-3.32-1.86-4.69-3.19-.02-.02-.04-.04-.06-.06-.81-.88-1.77-1.86-2.73-2.38-.98-.54-1.51-.38-1.91-.07-.34.47-.4.94-.21,1.55.84,2.69,5.94,5.94,8.28,6.62,1.5.42,2.5,1.6,2.62,3.07.12,1.51-.74,2.93-2.2,3.62-.95.46-1.96.56-2.92.56ZM52.51,130.93s.03,0,.04,0c.73.02,1.48,0,2.02-.27,0,0,.01,0,.02-.01.42-.2.55-.51.54-.74-.02-.3-.29-.44-.51-.5,0,0,0,0,0,0-1.56-.45-3.78-1.64-5.66-3.03-1.71-1.26-3.89-3.25-4.6-5.53-.5-1.59-.21-3.11.82-4.37.06-.07.12-.13.19-.19,1.51-1.28,3.4-1.4,5.32-.34,1.31.72,2.47,1.88,3.43,2.93,2.26,2.17,5.3,3.54,8.33,3.75,1.94.08,4.11-.26,5.81-.91,1.37-.52,3.13-1.5,3.8-3.22.91-3.05-1-4.41-4.44-6.54-2.05-1.26-4.16-2.57-5.33-4.6-.01-.02-.02-.04-.03-.05-.44-.84-.64-1.65-.59-2.41.05-.81.37-1.53.93-2.08,1.26-1.23,3.46-1.36,5.35-.32,1.06.55,2.17,1.03,3.34,1.54,2.39,1.03,4.87,2.09,6.94,3.87.08.07.15.14.21.22.96,1.24,1.79,1.97,2.63,2.29.56.21,1.48.42,3.07-.29,2.35-1.28,4.41-3.69,5.53-6.44.81-2.4-.91-3.78-2.5-4.52-.03-.02-.06-.03-.1-.05-1.44-.81-2.86-1.65-4.23-2.47-1.89-1.13-3.84-2.3-5.83-3.34-1.56-.82-2.98-1.94-4.12-2.83-.35-.28-.8-.5-1.28-.74-.73-.37-1.56-.78-2.26-1.49-1.3-1.29-1.64-3.08-.87-4.56.76-1.45,2.39-2.18,4.16-1.86.04,0,.08.02.12.03,1.99.54,4.65,2.3,7.73,4.34,4.62,3.05,10.36,6.85,13.6,6.08.77-.18,1.36-.63,1.83-1.41.3-.88.34-2.11-1.53-3.86-1.57-1.47-3.94-2.78-6.03-3.94-1.43-.79-2.78-1.54-3.77-2.28-.96-.51-3.58-2.12-4.25-4.65-.32-1.21-.13-2.42.57-3.5.03-.05.06-.09.1-.14.85-1.04,2.39-2.12,4.94-1.42,1.45.4,2.81,1.26,3.9,1.95l.18.11c1.78.96,3.1,2.38,4.37,3.75,1.36,1.46,2.65,2.85,4.34,3.5,0,0,.02,0,.03.01,2.48,1.01,4.75-.2,5.91-1.86.99-1.42,1.44-3.62-.3-5.54-.79-.83-1.96-1.38-3.19-1.97-1.73-.82-3.7-1.76-4.82-3.68-.83-1.42-.93-3.45.47-4.61,1.18-.97,2.72-.7,3.3-.59,2.15.26,3.83,1.34,5.31,2.29.98.63,1.91,1.23,2.77,1.43.55.13,1.32.18,2.44-.59,1.44-1.15,3.08-3.35,3.29-5.51.1-1.04-.14-1.9-.75-2.63-1.41-1.31-3.26-1.02-6.14-.38-1.09.24-2.23.5-3.32.56-1.06.1-2.11-.08-3.01-.52-.94-.46-1.68-1.18-2.08-2.03-.73-1.53-.33-3.27,1.05-4.65,0,0,0,0,0,0,.86-.86,1.92-1.18,2.85-1.47.22-.07.42-.13.62-.2l3.61-1.25s.07-.02.1-.03c.98-.26,2.26-.79,2.75-1.81.37-.77.27-1.79-.28-3.02,0-.02-.01-.03-.02-.05-1.98-4.9-6.46-8-11.71-8.09-.01,0-.03,0-.04,0-1.53-.07-2.77.32-3.47,1.11-.85.94-.85,2.3-.7,3.27,0,.02,0,.04,0,.06.04.35.09.71.14,1.09.28,1.97.6,4.21-.62,6.25,0,0,0,.01,0,.02-.87,1.42-2.23,2.23-3.69,2.23-.25,0-.5-.02-.75-.07-1.79-.34-3.17-1.84-3.52-3.81-.2-.92-.2-1.81-.2-2.67,0-.39,0-.76-.02-1.13,0-.02,0-.05,0-.07,0-.64-.19-2.73-2.41-2.77-3.92.27-6.52,1.91-7.31,4.62-.48,1.63-.28,3.6.55,5.54.9,2.09,2.45,3.99,4.46,5.48.03.03.07.05.1.08.44.39.9.78,1.34,1.16,2.07,1.78,4.22,3.62,5.81,6,1.46,2.04,2.3,4.81.91,6.44-.4.47-1.14,1.01-2.42.95-.82-.04-1.75-.33-2.83-.87-3.23-1.6-5.39-4.34-7.48-7-2.16-2.74-4.2-5.34-7.23-6.46-1.64-.49-3.4-.18-4.41.79-2.03,1.94-.03,4.95,2.39,8.13.19.25.36.48.53.7,0,.01.02.03.03.04,1.2,1.74,2.73,3.19,4.34,4.74,1.39,1.33,2.82,2.7,4.05,4.27.05.06.09.12.12.19.6,1.08.61,2.33,0,3.33-.6,1-1.71,1.59-2.95,1.56-.08,0-.15,0-.23-.02-2.05-.37-4.1-1.3-6.1-2.76-1.59-1.17-3.16-2.69-4.65-4.51,0-.01-.02-.02-.03-.03-.58-.76-1.07-1.67-1.55-2.56-.91-1.7-1.84-3.46-3.26-3.79-1.74-.35-3.25,1.82-3.81,2.77-.01.02-.02.04-.04.06-2.17,3.27-2.97,6.1-2.43,8.64.59,2.77,2.81,5.34,6.79,7.87.06.04.13.09.18.14,2.7,2.38,5.7,4.56,8.6,6.66.53.39,1.07.77,1.6,1.16,2.37,1.6,3.27,3.58,2.46,5.45-.02.05-.04.09-.07.13-.5.9-1.3,1.48-2.31,1.69-.28.06-.57.09-.88.09-1.69,0-3.87-.86-6.77-2.65-2.66-1.64-5.45-3.78-7.7-5.5-1.58-1.21-2.94-2.25-3.62-2.63-.08-.05-.16-.1-.24-.17-.93-.8-1.98-1.19-2.94-1.1-.9.08-1.75.58-2.44,1.44,0,0,0,.01-.01.02-.55.65-.89,1.46-1.25,2.31-.25.58-.51,1.19-.85,1.8-.6,1.07-.77,2.11-.54,3.25.12.58.37,1.37.92,1.85.54.47,1.4.7,2.31.93.1.02.19.05.29.07,1.91.5,3.57,1.11,5.08,1.88.31.14.65.27,1,.42,1.25.51,2.67,1.1,3.86,1.97,1.51,1.11,2.37,2.52,2.58,4.2,0,0,0,0,0,0,.12,1.05-.11,2.15-.67,3.08-.61,1.02-1.54,1.72-2.61,1.97-.09.02-.17.03-.26.04-.12,0-.23,0-.34,0-2.41,0-4.55-1.26-6.63-2.48-2.07-1.22-4.02-2.37-5.98-2.13-4.01.71-6.15,3.87-5.73,8.46.69,7.48,7.8,15.48,18.14,15.48.07,0,.15,0,.22,0,0,0,.01,0,.02,0Z"/>
  </g>
</svg>